<svg xmlns="http://www.w3.org/2000/svg" width="355.143" height="60" viewBox="0 0 355.143 60"><defs><style>.a{fill:#fff;font-size:20px;font-family:Rubik-Regular, Rubik;}.b{opacity:0;}.c{fill:none;stroke:#000;stroke-linecap:round;stroke-width:2px;}</style></defs><g transform="translate(-28.857 -59)"><g transform="translate(82 -170)"><circle cx="30" cy="30" r="30" transform="translate(95 229)"/><text class="a" transform="translate(112 266)"><tspan x="0" y="0">N8</tspan></text></g><g transform="translate(306 77)"><rect class="b" width="24" height="24"/><path d="M20.71,19.29l-3.4-3.39A7.92,7.92,0,0,0,19,11a8,8,0,1,0-8,8,7.92,7.92,0,0,0,4.9-1.69l3.39,3.4a1,1,0,1,0,1.42-1.42ZM5,11a6,6,0,1,1,6,6,6,6,0,0,1-6-6Z"/></g><g transform="translate(360 77)"><rect class="b" width="24" height="24"/><path d="M21.08,7a2,2,0,0,0-1.7-1H6.58L6,3.74A1,1,0,0,0,5,3H3A1,1,0,0,0,3,5H4.24L7,15.26A1,1,0,0,0,8,16h9a1,1,0,0,0,.89-.55l3.28-6.56A2,2,0,0,0,21.08,7Z"/><circle cx="1.5" cy="1.5" r="1.5" transform="translate(6 18)"/><circle cx="1.5" cy="1.5" r="1.5" transform="translate(16 18)"/></g><path class="c" d="M1006.218,82.553,998.271,90.5l5.96,5.96,1.987,1.987" transform="translate(-968 -1.053)"/></g></svg>