<svg xmlns="http://www.w3.org/2000/svg" width="304" height="242" viewBox="0 0 304 242"><defs><style>.a{fill:#d6d6d6;}.b{font-size:16px;font-family:Rubik-Regular, Rubik;}.c{fill:none;stroke:#000;stroke-linecap:round;stroke-linejoin:round;stroke-width:2px;}</style></defs><g transform="translate(-24 -701)"><rect class="a" width="56" height="24" rx="2" transform="translate(25 701)"/><text class="b" transform="translate(35 719)"><tspan x="0" y="0">Spec</tspan></text><g transform="translate(3 -7)"><g transform="translate(25 763)"><path class="c" d="M19,14.737Q19,18.316,12,21q-7-2.684-7-6.263V5.789A22.257,22.257,0,0,1,12,4a22.257,22.257,0,0,1,7,1.789Z" transform="translate(-5 -4)"/></g><text class="b" transform="translate(69 777)"><tspan x="0" y="0">Anti-pollution, anti-dust</tspan></text></g><g transform="translate(3 -10)"><g transform="translate(22 816)"><path class="c" d="M5.715,20.388,14.452,9.5A4,4,0,0,1,17.572,8H21" transform="translate(-2 -5)"/><path class="c" d="M19,5l3,3-3,3h0" transform="translate(-2 -5)"/><path class="c" d="M3,8H6.428a4,4,0,0,1,3.12,1.5l8.737,10.891" transform="translate(-2 -5)"/><path class="c" d="M5,11,2,8,5,5" transform="translate(-2 -5)"/></g><text class="b" transform="translate(69 829)"><tspan x="0" y="0">Reusable </tspan></text></g><g transform="translate(3 -16)"><g transform="translate(22 869)"><path class="c" d="M7.3,14a5.177,5.177,0,0,0,9.391,0" transform="translate(-2 -2)"/><line class="c" transform="translate(7 7)"/><line class="c" transform="translate(13 7)"/><circle class="c" cx="10" cy="10" r="10"/></g><text class="b" transform="translate(69 884)"><tspan x="0" y="0">Pleated at sides for extra comfort</tspan></text></g><g transform="translate(3 -21)"><g transform="translate(22 925)"><circle class="c" cx="4" cy="4" r="4" transform="translate(6 5)"/><path class="c" d="M12,5V3m0,18V19M5,12H5Zm17,0h0ZM16.95,7.05l2.121-2.121ZM4.929,19.071,7.05,16.95ZM16.95,16.95l2.121,2.121ZM4.929,4.929,7.05,7.05Z" transform="translate(-2 -3)"/></g><text class="b" transform="translate(69 939)"><tspan x="0" y="0">Wider face coverage for maximum </tspan><tspan x="0" y="21">protection </tspan></text></g></g></svg>