<svg xmlns="http://www.w3.org/2000/svg" xmlns:xlink="http://www.w3.org/1999/xlink" width="162" height="143.065" viewBox="0 0 162 143.065"><defs><style>.a,.b,.d{fill:#fff;}.a{font-size:20px;font-family:Rubik-Medium, Rubik;font-weight:500;}.c,.d{font-size:16px;font-family:Rubik-Regular, Rubik;}.e{fill:none;stroke:#707070;}.f{filter:url(#e);}.g{filter:url(#c);}.h{filter:url(#a);}</style><filter id="a" x="0" y="36" width="56" height="56" filterUnits="userSpaceOnUse"><feOffset dy="3" input="SourceAlpha"/><feGaussianBlur stdDeviation="3" result="b"/><feFlood flood-opacity="0.161"/><feComposite operator="in" in2="b"/><feComposite in="SourceGraphic"/></filter><filter id="c" x="53" y="36" width="56" height="56" filterUnits="userSpaceOnUse"><feOffset dy="3" input="SourceAlpha"/><feGaussianBlur stdDeviation="3" result="d"/><feFlood flood-opacity="0.161"/><feComposite operator="in" in2="d"/><feComposite in="SourceGraphic"/></filter><filter id="e" x="106" y="36" width="56" height="56" filterUnits="userSpaceOnUse"><feOffset dy="3" input="SourceAlpha"/><feGaussianBlur stdDeviation="3" result="f"/><feFlood flood-opacity="0.161"/><feComposite operator="in" in2="f"/><feComposite in="SourceGraphic"/></filter></defs><g transform="translate(-114 -634)"><text class="a" transform="translate(123 653)"><tspan x="0" y="0">Select Size</tspan></text><g transform="translate(87 135)"><g class="h" transform="matrix(1, 0, 0, 1, 27, 499)"><circle class="b" cx="19" cy="19" r="19" transform="translate(9 42)"/></g><text class="c" transform="translate(50 566)"><tspan x="0" y="0">S</tspan></text><g transform="translate(53)"><g class="g" transform="matrix(1, 0, 0, 1, -26, 499)"><circle class="b" cx="19" cy="19" r="19" transform="translate(62 42)"/></g><text class="c" transform="translate(49 566)"><tspan x="0" y="0">M</tspan></text></g><g transform="translate(106)"><g class="f" transform="matrix(1, 0, 0, 1, -79, 499)"><circle class="b" cx="19" cy="19" r="19" transform="translate(115 42)"/></g><text class="c" transform="translate(50 566)"><tspan x="0" y="0">L</tspan></text></g></g><g transform="translate(-4 15)"><text class="d" transform="translate(127 751)"><tspan x="0" y="0">Size Chart</tspan></text><path class="e" d="M1095,1926.565h75.283" transform="translate(-967.5 -1165)"/></g></g></svg>